PathFileType	4	(X/Y/Z)	 s06c0101.trc
DataRate	CameraRate	NumFrames	NumMarkers	Units	OrigDataRate	OrigDataStartFrame	OrigNumFrames
200	200	4	49	mm	200	1501	2000
Frame#	Time	racr			lacr			c7			jug			rlel			rdr			llel			ldr			s2			lic			ric			lasi			rasi			rpsi			lpsi			rgt			lgt			rth1			rth2			rth3			rth4			rlfc			rmfc			rsh1			rsh2			rsh3			rsh4			rlmal			rmmal			rcal			rtoe			rmt5			lth1			lth2			lth4			lth3			llfc			lmfc			llmal			lcal			lmt5			lsh1			lsh2			lsh3			lsh4			ltoe			SBIKE			LBIKE			RBIKE			
		X1	Y1	Z1	X2	Y2	Z2	X3	Y3	Z3	X4	Y4	Z4	X5	Y5	Z5	X6	Y6	Z6	X7	Y7	Z7	X8	Y8	Z8	X9	Y9	Z9	X10	Y10	Z10	X11	Y11	Z11	X12	Y12	Z12	X13	Y13	Z13	X14	Y14	Z14	X15	Y15	Z15	X16	Y16	Z16	X17	Y17	Z17	X18	Y18	Z18	X19	Y19	Z19	X20	Y20	Z20	X21	Y21	Z21	X22	Y22	Z22	X23	Y23	Z23	X24	Y24	Z24	X25	Y25	Z25	X26	Y26	Z26	X27	Y27	Z27	X28	Y28	Z28	X29	Y29	Z29	X30	Y30	Z30	X31	Y31	Z31	X32	Y32	Z32	X33	Y33	Z33	X34	Y34	Z34	X35	Y35	Z35	X36	Y36	Z36	X37	Y37	Z37	X38	Y38	Z38	X39	Y39	Z39	X40	Y40	Z40	X41	Y41	Z41	X42	Y42	Z42	X43	Y43	Z43	X44	Y44	Z44	X45	Y45	Z45	X46	Y46	Z46	X47	Y47	Z47	X48	Y48	Z48	X49	Y49	Z49	
1501	7.5050	504.780944	1261.050693	-69.590363	523.755290	1240.465351	-355.598734	516.798974	1319.786505	-215.282234	473.755299	1154.089796	-206.669650	508.958112	1031.861521	55.327243	707.629838	933.094276	-39.581279	488.187003	998.423110	-465.307583	704.437611	926.491060	-405.822384	-44.465533	1174.517927	-226.045681	121.548568	1130.973445	-389.751429	87.441579	1158.812859	-64.276124	139.550640	1080.095542	-356.038119	113.835383	1107.864663	-92.388573	-10.404331	1219.940993	-203.834040	-12.010221	1207.634466	-263.424575	80.153843	1112.776491	-25.426136	81.849382	1047.712511	-419.621742	187.941402	1057.088199	-23.768284	277.041527	1043.452884	-31.578099	345.157192	989.267737	-33.575804	287.434260	1073.310804	-53.223385	418.761467	917.660773	-59.847025	409.307056	893.323016	-175.764018	370.429169	802.876093	-36.074864	345.939038	720.515404	-55.421707	286.976702	657.090591	-55.089601	367.347658	712.514011	-88.448452	234.370045	583.153688	-60.933798	271.124593	577.264718	-151.238451	166.424898	566.746022	-108.882904	421.919701	461.827630	-100.044401	321.874174	475.674559	-33.611753	111.531510	918.651082	-438.292568	168.440040	852.433099	-434.065515	201.346889	868.336938	-425.132244	184.119889	764.913104	-425.079977	211.393881	653.998436	-397.706945	213.927609	640.799116	-279.669623	81.476847	313.329431	-371.623007	17.182088	324.970080	-324.544584	147.280174	179.883307	-404.269484	179.849883	552.579961	-414.823668	169.915077	469.231696	-392.644136	120.830880	396.534184	-392.449094	196.548876	464.282863	-364.159040	221.713946	132.100018	-349.998659	-204.171067	870.870528	-212.617307	-48.804145	84.261523	-419.620587	-50.278571	80.191476	-22.209675	
1502	7.5100	505.378592	1259.974722	-70.235654	523.832771	1238.580460	-356.623385	517.207512	1318.913745	-216.172157	474.039610	1153.231987	-207.587986	508.169447	1030.496381	54.768135	707.429341	933.004135	-39.870096	487.480703	996.190403	-465.739096	703.960607	926.246671	-406.054932	-44.351373	1175.017595	-226.980630	120.829674	1130.611957	-390.036673	87.894576	1158.790151	-64.655004	138.564582	1079.485009	-356.469040	114.549894	1108.078390	-92.957835	-10.271836	1220.305555	-204.355876	-12.712523	1207.801155	-261.829902	80.413126	1112.020137	-25.808558	80.852159	1047.769761	-420.271994	187.710883	1053.661808	-24.267300	276.613861	1038.319532	-32.500058	343.789335	983.346722	-34.786394	287.490782	1068.431690	-55.164156	416.674750	910.895456	-61.630943	407.085906	885.559311	-176.509398	368.873455	795.319583	-36.147111	345.925112	712.465455	-55.435446	288.094935	648.036651	-55.017213	367.556619	704.720245	-88.445863	237.150799	572.879032	-60.643344	273.664792	568.436356	-151.373937	169.885734	553.818490	-108.551618	429.222309	459.665490	-100.107610	328.704169	469.198526	-33.405861	112.118908	919.273253	-438.716037	170.327156	854.200034	-434.247512	202.861365	870.769816	-425.256892	187.819256	767.011825	-424.889433	216.423707	657.076716	-398.138937	217.857641	644.812592	-279.865015	76.571356	320.399535	-371.328171	12.361859	333.531606	-324.134345	139.259945	185.803362	-404.123996	182.646701	556.227285	-414.779309	170.010087	473.149808	-391.720976	119.225909	402.028209	-392.076900	196.072666	467.693762	-362.529013	212.723295	136.468681	-349.979660	-204.155319	870.851413	-212.554541	-48.706382	84.080670	-419.297770	-50.339955	80.471109	-21.970015	
1503	7.5150	506.000826	1258.929382	-70.894497	523.815720	1236.789577	-357.608931	517.543514	1318.006982	-217.224473	474.352875	1152.321461	-208.521250	506.953691	1029.570612	54.423935	707.145313	932.880904	-40.194497	486.914037	994.226325	-466.287254	703.520614	926.101992	-406.346197	-44.401326	1175.384628	-227.254631	120.196435	1130.234564	-390.450609	88.328044	1158.387353	-64.847563	137.616743	1079.032435	-357.084167	115.286450	1107.936156	-93.338594	-10.119144	1220.187734	-204.611852	-12.987560	1207.849341	-261.295265	80.608258	1110.696749	-25.914246	79.896358	1047.900591	-420.968151	187.745055	1049.940670	-24.717717	276.078405	1032.640522	-33.719751	342.305251	976.676147	-35.811658	287.541170	1062.509607	-56.426781	414.395585	903.280119	-62.387391	404.624352	877.451896	-177.708731	367.180869	786.870181	-36.287609	345.760711	703.517795	-55.443707	289.088886	638.041854	-55.018629	367.576996	696.091519	-88.465841	239.855258	561.907058	-60.502017	276.178652	558.626292	-151.589592	173.336654	540.174751	-108.558951	435.986369	456.502335	-100.039261	335.224728	462.056035	-33.107499	113.027665	920.155828	-439.098538	172.568892	856.367237	-434.469230	204.719812	873.535559	-425.463885	191.844845	769.524592	-425.107984	221.701497	660.323813	-398.619416	222.638706	648.869826	-280.367239	72.004061	327.849249	-371.148674	7.975481	342.517731	-323.811169	131.648733	192.327046	-404.108270	185.670734	560.105896	-415.021444	170.475593	477.642887	-391.491394	117.798724	407.827413	-391.767487	196.053354	471.515375	-361.785880	203.692927	140.649924	-349.090130	-204.140191	870.813892	-212.534499	-48.791567	84.245130	-419.518680	-50.284021	80.137190	-22.196120	
1504	7.5200	506.573063	1258.220155	-71.430613	523.715482	1235.194103	-358.706800	517.777216	1317.184170	-218.287836	474.615363	1151.498338	-209.155515	506.120154	1028.302090	53.624495	706.765233	932.707838	-40.495635	486.312736	992.706020	-467.167378	703.058659	925.978957	-406.713381	-44.595156	1175.377520	-226.304986	119.681623	1129.797419	-390.768617	88.865340	1157.613136	-65.106732	136.749028	1078.307961	-357.764292	116.404268	1107.676523	-93.957040	-9.915584	1219.319590	-204.143870	-12.924693	1207.764290	-261.576914	80.903976	1108.616332	-26.311471	78.911801	1048.180380	-421.510067	187.353629	1045.387105	-25.064175	275.540342	1026.434924	-35.230381	340.456207	968.768802	-36.939816	287.619636	1055.852127	-57.025570	411.673119	894.573098	-62.378482	401.936198	868.197706	-178.107494	364.945410	777.575097	-36.507920	345.663820	693.610243	-55.486334	290.270948	627.038721	-55.016005	367.571083	686.598997	-88.497792	242.611750	550.238560	-60.547276	278.942629	547.814206	-151.871048	176.628393	526.130985	-108.561876	442.324706	452.312140	-99.801092	341.427062	454.119953	-32.919204	114.147783	921.287064	-439.476506	175.159819	858.848641	-434.717398	206.862473	876.873673	-425.652716	196.476705	772.446537	-425.556648	227.258614	663.716994	-399.394993	228.095913	653.034165	-281.220642	67.842877	335.791808	-371.071620	4.022334	351.943343	-323.621095	124.332545	199.178253	-403.964668	188.821861	564.141473	-415.518320	171.099696	482.302823	-391.465013	116.533390	414.085056	-391.704108	196.294010	475.748430	-361.573417	195.334829	145.892769	-349.036969	-204.140934	870.735538	-212.535764	-48.787110	84.197444	-419.534239	-50.265419	79.934926	-22.186603	
